<?xml version="1.0" encoding="UTF-8" standalone="no"?>
<!-- Created with Inkscape (http://www.inkscape.org/) -->

<svg
   xmlns:dc="http://purl.org/dc/elements/1.1/"
   xmlns:cc="http://creativecommons.org/ns#"
   xmlns:rdf="http://www.w3.org/1999/02/22-rdf-syntax-ns#"
   xmlns:svg="http://www.w3.org/2000/svg"
   xmlns="http://www.w3.org/2000/svg"
   xmlns:sodipodi="http://sodipodi.sourceforge.net/DTD/sodipodi-0.dtd"
   xmlns:inkscape="http://www.inkscape.org/namespaces/inkscape"
   width="441.55939"
   height="264.34415"
   id="svg2"
   version="1.1"
   inkscape:version="0.47 r22583"
   sodipodi:docname="enswob.pdf">
  <defs
     id="defs4">
    <marker
       inkscape:stockid="Arrow2Lend"
       orient="auto"
       refY="0"
       refX="0"
       id="Arrow2Lend"
       style="overflow:visible">
      <path
         id="path3622"
         style="font-size:12px;fill-rule:evenodd;stroke-width:0.625;stroke-linejoin:round"
         d="M 8.7185878,4.0337352 -2.2072895,0.01601326 8.7185884,-4.0017078 c -1.7454984,2.3720609 -1.7354408,5.6174519 -6e-7,8.035443 z"
         transform="matrix(-1.1,0,0,-1.1,-1.1,0)" />
    </marker>
    <marker
       inkscape:stockid="Arrow1Lstart"
       orient="auto"
       refY="0"
       refX="0"
       id="Arrow1Lstart"
       style="overflow:visible">
      <path
         id="path3601"
         d="M 0,0 5,-5 -12.5,0 5,5 0,0 z"
         style="fill-rule:evenodd;stroke:#000000;stroke-width:1pt;marker-start:none"
         transform="matrix(0.8,0,0,0.8,10,0)" />
    </marker>
    <inkscape:path-effect
       effect="spiro"
       id="path-effect4238"
       is_visible="true" />
    <inkscape:path-effect
       effect="spiro"
       id="path-effect4234"
       is_visible="true" />
    <marker
       inkscape:stockid="Arrow1Lend"
       orient="auto"
       refY="0"
       refX="0"
       id="Arrow1Lend"
       style="overflow:visible">
      <path
         id="path3604"
         d="M 0,0 5,-5 -12.5,0 5,5 0,0 z"
         style="fill-rule:evenodd;stroke:#000000;stroke-width:1pt;marker-start:none"
         transform="matrix(-0.8,0,0,-0.8,-10,0)" />
    </marker>
    <inkscape:perspective
       sodipodi:type="inkscape:persp3d"
       inkscape:vp_x="0 : 526.18109 : 1"
       inkscape:vp_y="0 : 1000 : 0"
       inkscape:vp_z="744.09448 : 526.18109 : 1"
       inkscape:persp3d-origin="372.04724 : 350.78739 : 1"
       id="perspective10" />
  </defs>
  <sodipodi:namedview
     id="base"
     pagecolor="#ffffff"
     bordercolor="#666666"
     borderopacity="1.0"
     inkscape:pageopacity="0.0"
     inkscape:pageshadow="2"
     inkscape:zoom="0.98994949"
     inkscape:cx="138.54805"
     inkscape:cy="62.883048"
     inkscape:document-units="px"
     inkscape:current-layer="layer1"
     showgrid="false"
     inkscape:window-width="1214"
     inkscape:window-height="747"
     inkscape:window-x="303"
     inkscape:window-y="223"
     inkscape:window-maximized="0">
    <inkscape:grid
       type="xygrid"
       id="grid2822"
       empspacing="5"
       visible="true"
       enabled="true"
       snapvisiblegridlinesonly="true" />
  </sodipodi:namedview>
  <metadata
     id="metadata7">
    <rdf:RDF>
      <cc:Work
         rdf:about="">
        <dc:format>image/svg+xml</dc:format>
        <dc:type
           rdf:resource="http://purl.org/dc/dcmitype/StillImage" />
        <dc:title></dc:title>
      </cc:Work>
    </rdf:RDF>
  </metadata>
  <g
     inkscape:label="Layer 1"
     inkscape:groupmode="layer"
     id="layer1"
     transform="translate(-56.640625,-341.76218)">
    <path
       style="fill:none;stroke:#000000;stroke-width:1.20000005px;stroke-linecap:butt;stroke-linejoin:miter;stroke-opacity:1;marker-end:url(#Arrow1Lend);display:inline"
       d="m 80,582.36218 0,-240"
       id="path2824"
       inkscape:connector-type="polyline" />
    <path
       style="fill:none;stroke:#000000;stroke-width:1.20000005px;stroke-linecap:butt;stroke-linejoin:miter;stroke-opacity:1;marker-end:url(#Arrow1Lend)"
       d="m 80,582.36218 417.6,0"
       id="path4046"
       inkscape:connector-type="polyline" />
    <path
       style="fill:none;stroke:#000000;stroke-width:1.20000005px;stroke-linecap:butt;stroke-linejoin:miter;stroke-opacity:1"
       d="m 123.2,512.36218 c 0,0 14.4,20 43.2,20 43.2,0 72,-150 129.6,-150 52.50639,0 28.8,210 144,50"
       id="path4240"
       sodipodi:nodetypes="cszc" />
    <path
       sodipodi:nodetypes="cszs"
       id="path4242"
       d="m 123.2,512.36218 c 0,0 14.4,20 43.2,20 43.2,0 72,-110 129.6,-110 52.50639,0 28.8,220 144,60"
       style="fill:none;stroke:#000000;stroke-width:1.79999995;stroke-linecap:butt;stroke-linejoin:miter;stroke-miterlimit:4;stroke-opacity:1;stroke-dasharray:1.8, 1.8;stroke-dashoffset:1.08000004" />
    <text
       xml:space="preserve"
       style="font-size:18px;font-style:normal;font-weight:normal;fill:#000000;fill-opacity:1;stroke:none;font-family:Bitstream Vera Sans"
       x="200"
       y="602.36218"
       id="text4244"><tspan
         sodipodi:role="line"
         id="tspan4246"
         x="200"
         y="602.36218">Współrzędna reakcji</tspan></text>
    <flowRoot
       xml:space="preserve"
       id="flowRoot4248"
       style="font-size:12px;font-style:normal;font-weight:normal;fill:#000000;fill-opacity:1;stroke:none;font-family:Bitstream Vera Sans"><flowRegion
         id="flowRegion4250"><rect
           id="rect4252"
           width="173.57143"
           height="48.57143"
           x="198.57143"
           y="325.93362" /></flowRegion><flowPara
         id="flowPara4254"></flowPara></flowRoot>    <text
       xml:space="preserve"
       style="font-size:18px;font-style:normal;font-weight:normal;fill:#000000;fill-opacity:1;stroke:none;font-family:Bitstream Vera Sans"
       x="-472.36218"
       y="70"
       id="text4256"
       transform="matrix(0,-1,1,0,0,0)"
       inkscape:transform-center-x="-159.19977"
       inkscape:transform-center-y="-83.65387"><tspan
         sodipodi:role="line"
         x="-472.36218"
         y="70"
         id="tspan4266">∆G</tspan><tspan
         sodipodi:role="line"
         x="-472.36218"
         y="92.5"
         id="tspan4262" /></text>
    <flowRoot
       xml:space="preserve"
       id="flowRoot4270"
       style="font-size:18px;font-style:normal;font-weight:normal;fill:#000000;fill-opacity:1;stroke:none;font-family:Bitstream Vera Sans"
       transform="translate(15.052734,11.842573)"><flowRegion
         id="flowRegion4272"><rect
           id="rect4274"
           width="77.85714"
           height="39.285713"
           x="265"
           y="345.93362"
           style="font-size:18px" /></flowRegion><flowPara
         id="flowPara4276">TS</flowPara></flowRoot>    <g
       style="font-size:18px;font-style:normal;font-weight:normal;fill:#000000;fill-opacity:1;stroke:none;font-family:Bitstream Vera Sans"
       id="flowRoot4278"
       transform="translate(-9.52441,-0.20995738)">
      <path
         d="m 274.22461,399.00085 7.54102,0 0,1.49415 -5.76563,0 0,3.86718 5.20313,0 0,1.49414 -5.20313,0 0,6.2666 -1.77539,0 0,-13.12207"
         id="path4289" />
      <path
         d="M 293.55957,402.57214 290,407.36218 l 3.74414,5.05371 -1.90723,0 -2.86523,-3.86718 -2.86524,3.86718 -1.90722,0 3.82324,-5.15039 -3.49805,-4.69336 1.90723,0 2.61035,3.50684 2.61035,-3.50684 1.90723,0"
         id="path4291" />
      <path
         d="m 298.29785,413.05534 c 0,-0.74505 -0.15416,-1.32862 -0.46245,-1.75072 -0.30464,-0.42574 -0.72488,-0.63861 -1.26074,-0.63861 -0.53587,0 -0.95795,0.21287 -1.26624,0.63861 -0.30464,0.4221 -0.45695,1.00567 -0.45695,1.75072 0,0.74508 0.15231,1.33048 0.45695,1.75622 0.30829,0.42209 0.73037,0.63313 1.26624,0.63313 0.53586,0 0.9561,-0.21104 1.26074,-0.63313 0.30829,-0.42574 0.46245,-1.01114 0.46245,-1.75622 m -3.44638,-2.15261 c 0.21287,-0.36702 0.4808,-0.63861 0.80378,-0.8148 0.32666,-0.17983 0.71571,-0.26975 1.16715,-0.26976 0.74873,10e-6 1.35616,0.29729 1.82229,0.89187 0.46979,0.59459 0.70469,1.37636 0.70469,2.3453 0,0.96896 -0.2349,1.75073 -0.70469,2.34531 -0.46613,0.59458 -1.07356,0.89187 -1.82229,0.89187 -0.45144,0 -0.84049,-0.088 -1.16715,-0.26425 -0.32298,-0.17985 -0.59091,-0.45328 -0.80378,-0.82031 l 0,0.9249 -1.0185,0 0,-8.5664 1.0185,0 0,3.33627"
         style="font-size:12px"
         id="path4293" />
    </g>
    <path
       style="fill:none;stroke:#000000;stroke-width:1px;stroke-linecap:butt;stroke-linejoin:miter;stroke-opacity:1;marker-start:url(#Arrow1Lstart);marker-mid:none;marker-end:url(#Arrow2Lend)"
       d="m 295,382.36218 0,40"
       id="path4295"
       inkscape:connector-type="polyline" />
    <flowRoot
       xml:space="preserve"
       id="flowRoot4861"
       style="font-size:16px;font-style:normal;font-weight:normal;fill:#000000;fill-opacity:1;stroke:none;font-family:Bitstream Vera Sans"
       transform="translate(4.4765625,49.882946)"><flowRegion
         id="flowRegion4863"><rect
           id="rect4865"
           width="105.75124"
           height="53.665131"
           x="124.24876"
           y="488.69705"
           style="font-size:16px" /></flowRegion><flowPara
         id="flowPara4869">Zwinięte</flowPara></flowRoot>    <flowRoot
       xml:space="preserve"
       id="flowRoot4873"
       style="font-size:16px;font-style:normal;font-weight:normal;fill:#000000;fill-opacity:1;stroke:none;font-family:Bitstream Vera Sans"
       transform="translate(-2.2109375,11.382946)"><flowRegion
         id="flowRegion4875"><rect
           id="rect4877"
           width="132.32999"
           height="36.36549"
           x="336.3808"
           y="537.18439"
           style="font-size:16px" /></flowRegion><flowPara
         id="flowPara4879">Rozwinięte</flowPara></flowRoot>  </g>
</svg>
